<mxfile host="app.diagrams.net" modified="2024-03-08T00:08:12.371Z" agent="Mozilla/5.0 (Windows NT 10.0; Win64; x64) AppleWebKit/537.36 (KHTML, like Gecko) Chrome/122.0.0.0 Safari/537.36" etag="GOCjMMYN902AZYdRogIf" version="23.1.1" type="device">
  <diagram name="Page-1" id="9f46799a-70d6-7492-0946-bef42562c5a5">
    <mxGraphModel dx="2534" dy="772" grid="1" gridSize="10" guides="1" tooltips="1" connect="1" arrows="1" fold="1" page="1" pageScale="1" pageWidth="1100" pageHeight="850" background="none" math="0" shadow="0">
      <root>
        <mxCell id="0" />
        <mxCell id="1" parent="0" />
        <mxCell id="2W7-Mf5VqZzJveLvrDeV-1" value="EM Emitter" style="swimlane;fontStyle=1;align=center;verticalAlign=top;childLayout=stackLayout;horizontal=1;startSize=26;horizontalStack=0;resizeParent=1;resizeParentMax=0;resizeLast=0;collapsible=1;marginBottom=0;whiteSpace=wrap;html=1;" parent="1" vertex="1">
          <mxGeometry x="-160" y="550" width="160" height="220" as="geometry" />
        </mxCell>
        <mxCell id="2W7-Mf5VqZzJveLvrDeV-2" value="VLF&lt;br&gt;LF&lt;br&gt;MF&lt;br&gt;HF&lt;br&gt;VHF&lt;br&gt;UHF&lt;br&gt;SHF&lt;br&gt;EHF&lt;br&gt;802.11" style="text;strokeColor=none;fillColor=none;align=left;verticalAlign=top;spacingLeft=4;spacingRight=4;overflow=hidden;rotatable=0;points=[[0,0.5],[1,0.5]];portConstraint=eastwest;whiteSpace=wrap;html=1;" parent="2W7-Mf5VqZzJveLvrDeV-1" vertex="1">
          <mxGeometry y="26" width="160" height="144" as="geometry" />
        </mxCell>
        <mxCell id="2W7-Mf5VqZzJveLvrDeV-3" value="" style="line;strokeWidth=1;fillColor=none;align=left;verticalAlign=middle;spacingTop=-1;spacingLeft=3;spacingRight=3;rotatable=0;labelPosition=right;points=[];portConstraint=eastwest;strokeColor=inherit;" parent="2W7-Mf5VqZzJveLvrDeV-1" vertex="1">
          <mxGeometry y="170" width="160" height="8" as="geometry" />
        </mxCell>
        <mxCell id="gubLu68NkhB1d7AVvltT-2" value="EM Range&lt;br&gt;EM Frequency" style="text;strokeColor=none;fillColor=none;align=left;verticalAlign=top;spacingLeft=4;spacingRight=4;overflow=hidden;rotatable=0;points=[[0,0.5],[1,0.5]];portConstraint=eastwest;whiteSpace=wrap;html=1;" parent="2W7-Mf5VqZzJveLvrDeV-1" vertex="1">
          <mxGeometry y="178" width="160" height="42" as="geometry" />
        </mxCell>
        <mxCell id="2W7-Mf5VqZzJveLvrDeV-5" value="EM Detector" style="swimlane;fontStyle=1;align=center;verticalAlign=top;childLayout=stackLayout;horizontal=1;startSize=26;horizontalStack=0;resizeParent=1;resizeParentMax=0;resizeLast=0;collapsible=1;marginBottom=0;whiteSpace=wrap;html=1;" parent="1" vertex="1">
          <mxGeometry x="-160" y="300" width="160" height="170" as="geometry" />
        </mxCell>
        <mxCell id="2W7-Mf5VqZzJveLvrDeV-6" value="Target Acquisition&lt;br&gt;Tracking&lt;br&gt;Fire Control&lt;br&gt;Search&lt;br&gt;RADAR" style="text;strokeColor=none;fillColor=none;align=left;verticalAlign=top;spacingLeft=4;spacingRight=4;overflow=hidden;rotatable=0;points=[[0,0.5],[1,0.5]];portConstraint=eastwest;whiteSpace=wrap;html=1;" parent="2W7-Mf5VqZzJveLvrDeV-5" vertex="1">
          <mxGeometry y="26" width="160" height="84" as="geometry" />
        </mxCell>
        <mxCell id="2W7-Mf5VqZzJveLvrDeV-7" value="" style="line;strokeWidth=1;fillColor=none;align=left;verticalAlign=middle;spacingTop=-1;spacingLeft=3;spacingRight=3;rotatable=0;labelPosition=right;points=[];portConstraint=eastwest;strokeColor=inherit;" parent="2W7-Mf5VqZzJveLvrDeV-5" vertex="1">
          <mxGeometry y="110" width="160" height="8" as="geometry" />
        </mxCell>
        <mxCell id="2W7-Mf5VqZzJveLvrDeV-8" value="EM Range&lt;br&gt;EM Frequency&lt;br&gt;Triangulation" style="text;strokeColor=none;fillColor=none;align=left;verticalAlign=top;spacingLeft=4;spacingRight=4;overflow=hidden;rotatable=0;points=[[0,0.5],[1,0.5]];portConstraint=eastwest;whiteSpace=wrap;html=1;" parent="2W7-Mf5VqZzJveLvrDeV-5" vertex="1">
          <mxGeometry y="118" width="160" height="52" as="geometry" />
        </mxCell>
        <mxCell id="2W7-Mf5VqZzJveLvrDeV-13" value="Emmisions Controller" style="swimlane;fontStyle=1;align=center;verticalAlign=top;childLayout=stackLayout;horizontal=1;startSize=26;horizontalStack=0;resizeParent=1;resizeParentMax=0;resizeLast=0;collapsible=1;marginBottom=0;whiteSpace=wrap;html=1;" parent="1" vertex="1">
          <mxGeometry x="-860" y="270" width="160" height="170" as="geometry" />
        </mxCell>
        <mxCell id="2W7-Mf5VqZzJveLvrDeV-14" value="Name&lt;br&gt;Rank&lt;br&gt;Organization&lt;br&gt;Chain of Command&lt;br&gt;User Account" style="text;strokeColor=none;fillColor=none;align=left;verticalAlign=top;spacingLeft=4;spacingRight=4;overflow=hidden;rotatable=0;points=[[0,0.5],[1,0.5]];portConstraint=eastwest;whiteSpace=wrap;html=1;" parent="2W7-Mf5VqZzJveLvrDeV-13" vertex="1">
          <mxGeometry y="26" width="160" height="84" as="geometry" />
        </mxCell>
        <mxCell id="2W7-Mf5VqZzJveLvrDeV-15" value="" style="line;strokeWidth=1;fillColor=none;align=left;verticalAlign=middle;spacingTop=-1;spacingLeft=3;spacingRight=3;rotatable=0;labelPosition=right;points=[];portConstraint=eastwest;strokeColor=inherit;" parent="2W7-Mf5VqZzJveLvrDeV-13" vertex="1">
          <mxGeometry y="110" width="160" height="8" as="geometry" />
        </mxCell>
        <mxCell id="2W7-Mf5VqZzJveLvrDeV-16" value="&lt;span style=&quot;background-color: initial;&quot;&gt;Analyze mission parameters&lt;/span&gt;&lt;br&gt;&lt;span style=&quot;background-color: initial;&quot;&gt;Articulate expertise&lt;/span&gt;" style="text;strokeColor=none;fillColor=none;align=left;verticalAlign=top;spacingLeft=4;spacingRight=4;overflow=hidden;rotatable=0;points=[[0,0.5],[1,0.5]];portConstraint=eastwest;whiteSpace=wrap;html=1;" parent="2W7-Mf5VqZzJveLvrDeV-13" vertex="1">
          <mxGeometry y="118" width="160" height="52" as="geometry" />
        </mxCell>
        <mxCell id="2W7-Mf5VqZzJveLvrDeV-17" value="Capabilities Database" style="swimlane;fontStyle=1;align=center;verticalAlign=top;childLayout=stackLayout;horizontal=1;startSize=26;horizontalStack=0;resizeParent=1;resizeParentMax=0;resizeLast=0;collapsible=1;marginBottom=0;whiteSpace=wrap;html=1;" parent="1" vertex="1">
          <mxGeometry x="-380" y="430" width="160" height="160" as="geometry" />
        </mxCell>
        <mxCell id="2W7-Mf5VqZzJveLvrDeV-18" value="Time&lt;br style=&quot;border-color: var(--border-color);&quot;&gt;Frequency&lt;br style=&quot;border-color: var(--border-color);&quot;&gt;Location" style="text;strokeColor=none;fillColor=none;align=left;verticalAlign=top;spacingLeft=4;spacingRight=4;overflow=hidden;rotatable=0;points=[[0,0.5],[1,0.5]];portConstraint=eastwest;whiteSpace=wrap;html=1;" parent="2W7-Mf5VqZzJveLvrDeV-17" vertex="1">
          <mxGeometry y="26" width="160" height="54" as="geometry" />
        </mxCell>
        <mxCell id="2W7-Mf5VqZzJveLvrDeV-19" value="" style="line;strokeWidth=1;fillColor=none;align=left;verticalAlign=middle;spacingTop=-1;spacingLeft=3;spacingRight=3;rotatable=0;labelPosition=right;points=[];portConstraint=eastwest;strokeColor=inherit;" parent="2W7-Mf5VqZzJveLvrDeV-17" vertex="1">
          <mxGeometry y="80" width="160" height="8" as="geometry" />
        </mxCell>
        <mxCell id="2W7-Mf5VqZzJveLvrDeV-20" value="EM Range&lt;br style=&quot;border-color: var(--border-color);&quot;&gt;EM Frequency&lt;br&gt;EM Emitter Equipment&lt;br&gt;EM Detector Equipment&amp;nbsp;" style="text;strokeColor=none;fillColor=none;align=left;verticalAlign=top;spacingLeft=4;spacingRight=4;overflow=hidden;rotatable=0;points=[[0,0.5],[1,0.5]];portConstraint=eastwest;whiteSpace=wrap;html=1;" parent="2W7-Mf5VqZzJveLvrDeV-17" vertex="1">
          <mxGeometry y="88" width="160" height="72" as="geometry" />
        </mxCell>
        <mxCell id="2W7-Mf5VqZzJveLvrDeV-21" value="GUI" style="swimlane;fontStyle=1;align=center;verticalAlign=top;childLayout=stackLayout;horizontal=1;startSize=26;horizontalStack=0;resizeParent=1;resizeParentMax=0;resizeLast=0;collapsible=1;marginBottom=0;whiteSpace=wrap;html=1;" parent="1" vertex="1">
          <mxGeometry x="-620" y="180" width="160" height="150" as="geometry" />
        </mxCell>
        <mxCell id="2W7-Mf5VqZzJveLvrDeV-22" value="Input Field&lt;br&gt;Output Field&lt;br&gt;" style="text;strokeColor=none;fillColor=none;align=left;verticalAlign=top;spacingLeft=4;spacingRight=4;overflow=hidden;rotatable=0;points=[[0,0.5],[1,0.5]];portConstraint=eastwest;whiteSpace=wrap;html=1;" parent="2W7-Mf5VqZzJveLvrDeV-21" vertex="1">
          <mxGeometry y="26" width="160" height="44" as="geometry" />
        </mxCell>
        <mxCell id="2W7-Mf5VqZzJveLvrDeV-23" value="" style="line;strokeWidth=1;fillColor=none;align=left;verticalAlign=middle;spacingTop=-1;spacingLeft=3;spacingRight=3;rotatable=0;labelPosition=right;points=[];portConstraint=eastwest;strokeColor=inherit;" parent="2W7-Mf5VqZzJveLvrDeV-21" vertex="1">
          <mxGeometry y="70" width="160" height="8" as="geometry" />
        </mxCell>
        <mxCell id="2W7-Mf5VqZzJveLvrDeV-24" value="Map Grid Location&lt;br style=&quot;border-color: var(--border-color);&quot;&gt;Equipment Type&lt;br style=&quot;border-color: var(--border-color);&quot;&gt;Antenna Type&lt;br&gt;Terrain Features" style="text;strokeColor=none;fillColor=none;align=left;verticalAlign=top;spacingLeft=4;spacingRight=4;overflow=hidden;rotatable=0;points=[[0,0.5],[1,0.5]];portConstraint=eastwest;whiteSpace=wrap;html=1;" parent="2W7-Mf5VqZzJveLvrDeV-21" vertex="1">
          <mxGeometry y="78" width="160" height="72" as="geometry" />
        </mxCell>
        <mxCell id="2W7-Mf5VqZzJveLvrDeV-25" value="Mapping" style="swimlane;fontStyle=1;align=center;verticalAlign=top;childLayout=stackLayout;horizontal=1;startSize=26;horizontalStack=0;resizeParent=1;resizeParentMax=0;resizeLast=0;collapsible=1;marginBottom=0;whiteSpace=wrap;html=1;" parent="1" vertex="1">
          <mxGeometry x="-380" y="30" width="160" height="86" as="geometry" />
        </mxCell>
        <mxCell id="2W7-Mf5VqZzJveLvrDeV-26" value="Satellite Imagery" style="text;strokeColor=none;fillColor=none;align=left;verticalAlign=top;spacingLeft=4;spacingRight=4;overflow=hidden;rotatable=0;points=[[0,0.5],[1,0.5]];portConstraint=eastwest;whiteSpace=wrap;html=1;" parent="2W7-Mf5VqZzJveLvrDeV-25" vertex="1">
          <mxGeometry y="26" width="160" height="26" as="geometry" />
        </mxCell>
        <mxCell id="2W7-Mf5VqZzJveLvrDeV-27" value="" style="line;strokeWidth=1;fillColor=none;align=left;verticalAlign=middle;spacingTop=-1;spacingLeft=3;spacingRight=3;rotatable=0;labelPosition=right;points=[];portConstraint=eastwest;strokeColor=inherit;" parent="2W7-Mf5VqZzJveLvrDeV-25" vertex="1">
          <mxGeometry y="52" width="160" height="8" as="geometry" />
        </mxCell>
        <mxCell id="2W7-Mf5VqZzJveLvrDeV-28" value="Google maps" style="text;strokeColor=none;fillColor=none;align=left;verticalAlign=top;spacingLeft=4;spacingRight=4;overflow=hidden;rotatable=0;points=[[0,0.5],[1,0.5]];portConstraint=eastwest;whiteSpace=wrap;html=1;" parent="2W7-Mf5VqZzJveLvrDeV-25" vertex="1">
          <mxGeometry y="60" width="160" height="26" as="geometry" />
        </mxCell>
        <mxCell id="2W7-Mf5VqZzJveLvrDeV-29" value="Graphic Overlay" style="swimlane;fontStyle=1;align=center;verticalAlign=top;childLayout=stackLayout;horizontal=1;startSize=26;horizontalStack=0;resizeParent=1;resizeParentMax=0;resizeLast=0;collapsible=1;marginBottom=0;whiteSpace=wrap;html=1;" parent="1" vertex="1">
          <mxGeometry x="-380" y="190" width="160" height="140" as="geometry" />
        </mxCell>
        <mxCell id="2W7-Mf5VqZzJveLvrDeV-30" value="Shapes&lt;br&gt;Colors" style="text;strokeColor=none;fillColor=none;align=left;verticalAlign=top;spacingLeft=4;spacingRight=4;overflow=hidden;rotatable=0;points=[[0,0.5],[1,0.5]];portConstraint=eastwest;whiteSpace=wrap;html=1;" parent="2W7-Mf5VqZzJveLvrDeV-29" vertex="1">
          <mxGeometry y="26" width="160" height="44" as="geometry" />
        </mxCell>
        <mxCell id="2W7-Mf5VqZzJveLvrDeV-31" value="" style="line;strokeWidth=1;fillColor=none;align=left;verticalAlign=middle;spacingTop=-1;spacingLeft=3;spacingRight=3;rotatable=0;labelPosition=right;points=[];portConstraint=eastwest;strokeColor=inherit;" parent="2W7-Mf5VqZzJveLvrDeV-29" vertex="1">
          <mxGeometry y="70" width="160" height="8" as="geometry" />
        </mxCell>
        <mxCell id="2W7-Mf5VqZzJveLvrDeV-32" value="Diameter&lt;br style=&quot;border-color: var(--border-color);&quot;&gt;EM Range&lt;br style=&quot;border-color: var(--border-color);&quot;&gt;EM Frequency" style="text;strokeColor=none;fillColor=none;align=left;verticalAlign=top;spacingLeft=4;spacingRight=4;overflow=hidden;rotatable=0;points=[[0,0.5],[1,0.5]];portConstraint=eastwest;whiteSpace=wrap;html=1;" parent="2W7-Mf5VqZzJveLvrDeV-29" vertex="1">
          <mxGeometry y="78" width="160" height="62" as="geometry" />
        </mxCell>
        <mxCell id="2W7-Mf5VqZzJveLvrDeV-33" value="Commander" style="swimlane;fontStyle=1;align=center;verticalAlign=top;childLayout=stackLayout;horizontal=1;startSize=26;horizontalStack=0;resizeParent=1;resizeParentMax=0;resizeLast=0;collapsible=1;marginBottom=0;whiteSpace=wrap;html=1;" parent="1" vertex="1">
          <mxGeometry x="-1100" y="470" width="160" height="134" as="geometry" />
        </mxCell>
        <mxCell id="2W7-Mf5VqZzJveLvrDeV-34" value="Name&lt;br&gt;Rank&lt;br&gt;Organization&lt;br&gt;Authority&lt;br&gt;Chain of Command" style="text;strokeColor=none;fillColor=none;align=left;verticalAlign=top;spacingLeft=4;spacingRight=4;overflow=hidden;rotatable=0;points=[[0,0.5],[1,0.5]];portConstraint=eastwest;whiteSpace=wrap;html=1;" parent="2W7-Mf5VqZzJveLvrDeV-33" vertex="1">
          <mxGeometry y="26" width="160" height="74" as="geometry" />
        </mxCell>
        <mxCell id="2W7-Mf5VqZzJveLvrDeV-35" value="" style="line;strokeWidth=1;fillColor=none;align=left;verticalAlign=middle;spacingTop=-1;spacingLeft=3;spacingRight=3;rotatable=0;labelPosition=right;points=[];portConstraint=eastwest;strokeColor=inherit;" parent="2W7-Mf5VqZzJveLvrDeV-33" vertex="1">
          <mxGeometry y="100" width="160" height="8" as="geometry" />
        </mxCell>
        <mxCell id="2W7-Mf5VqZzJveLvrDeV-36" value="Decide resource allocation" style="text;strokeColor=none;fillColor=none;align=left;verticalAlign=top;spacingLeft=4;spacingRight=4;overflow=hidden;rotatable=0;points=[[0,0.5],[1,0.5]];portConstraint=eastwest;whiteSpace=wrap;html=1;" parent="2W7-Mf5VqZzJveLvrDeV-33" vertex="1">
          <mxGeometry y="108" width="160" height="26" as="geometry" />
        </mxCell>
        <mxCell id="2W7-Mf5VqZzJveLvrDeV-37" value="Data Visualization" style="swimlane;fontStyle=1;align=center;verticalAlign=top;childLayout=stackLayout;horizontal=1;startSize=26;horizontalStack=0;resizeParent=1;resizeParentMax=0;resizeLast=0;collapsible=1;marginBottom=0;whiteSpace=wrap;html=1;" parent="1" vertex="1">
          <mxGeometry x="-620" y="590" width="160" height="120" as="geometry" />
        </mxCell>
        <mxCell id="2W7-Mf5VqZzJveLvrDeV-38" value="Maps&lt;br&gt;Overlays" style="text;strokeColor=none;fillColor=none;align=left;verticalAlign=top;spacingLeft=4;spacingRight=4;overflow=hidden;rotatable=0;points=[[0,0.5],[1,0.5]];portConstraint=eastwest;whiteSpace=wrap;html=1;" parent="2W7-Mf5VqZzJveLvrDeV-37" vertex="1">
          <mxGeometry y="26" width="160" height="34" as="geometry" />
        </mxCell>
        <mxCell id="2W7-Mf5VqZzJveLvrDeV-39" value="" style="line;strokeWidth=1;fillColor=none;align=left;verticalAlign=middle;spacingTop=-1;spacingLeft=3;spacingRight=3;rotatable=0;labelPosition=right;points=[];portConstraint=eastwest;strokeColor=inherit;" parent="2W7-Mf5VqZzJveLvrDeV-37" vertex="1">
          <mxGeometry y="60" width="160" height="8" as="geometry" />
        </mxCell>
        <mxCell id="2W7-Mf5VqZzJveLvrDeV-40" value="Static&lt;br&gt;Dynamic&lt;br&gt;Interactive" style="text;strokeColor=none;fillColor=none;align=left;verticalAlign=top;spacingLeft=4;spacingRight=4;overflow=hidden;rotatable=0;points=[[0,0.5],[1,0.5]];portConstraint=eastwest;whiteSpace=wrap;html=1;" parent="2W7-Mf5VqZzJveLvrDeV-37" vertex="1">
          <mxGeometry y="68" width="160" height="52" as="geometry" />
        </mxCell>
        <mxCell id="2W7-Mf5VqZzJveLvrDeV-41" value="Decision Support Matrix" style="swimlane;fontStyle=1;align=center;verticalAlign=top;childLayout=stackLayout;horizontal=1;startSize=26;horizontalStack=0;resizeParent=1;resizeParentMax=0;resizeLast=0;collapsible=1;marginBottom=0;whiteSpace=wrap;html=1;" parent="1" vertex="1">
          <mxGeometry x="-860" y="630" width="160" height="130" as="geometry" />
        </mxCell>
        <mxCell id="2W7-Mf5VqZzJveLvrDeV-42" value="Criteria&lt;br&gt;Problems&lt;br&gt;Actions" style="text;strokeColor=none;fillColor=none;align=left;verticalAlign=top;spacingLeft=4;spacingRight=4;overflow=hidden;rotatable=0;points=[[0,0.5],[1,0.5]];portConstraint=eastwest;whiteSpace=wrap;html=1;" parent="2W7-Mf5VqZzJveLvrDeV-41" vertex="1">
          <mxGeometry y="26" width="160" height="54" as="geometry" />
        </mxCell>
        <mxCell id="2W7-Mf5VqZzJveLvrDeV-43" value="" style="line;strokeWidth=1;fillColor=none;align=left;verticalAlign=middle;spacingTop=-1;spacingLeft=3;spacingRight=3;rotatable=0;labelPosition=right;points=[];portConstraint=eastwest;strokeColor=inherit;" parent="2W7-Mf5VqZzJveLvrDeV-41" vertex="1">
          <mxGeometry y="80" width="160" height="8" as="geometry" />
        </mxCell>
        <mxCell id="2W7-Mf5VqZzJveLvrDeV-44" value="Decision Points&lt;br&gt;Supporting Unit" style="text;strokeColor=none;fillColor=none;align=left;verticalAlign=top;spacingLeft=4;spacingRight=4;overflow=hidden;rotatable=0;points=[[0,0.5],[1,0.5]];portConstraint=eastwest;whiteSpace=wrap;html=1;" parent="2W7-Mf5VqZzJveLvrDeV-41" vertex="1">
          <mxGeometry y="88" width="160" height="42" as="geometry" />
        </mxCell>
        <mxCell id="2W7-Mf5VqZzJveLvrDeV-45" value="" style="endArrow=classic;html=1;rounded=0;" parent="1" edge="1">
          <mxGeometry width="50" height="50" relative="1" as="geometry">
            <mxPoint x="-940" y="510" as="sourcePoint" />
            <mxPoint x="-860" y="350" as="targetPoint" />
            <Array as="points">
              <mxPoint x="-900" y="510" />
              <mxPoint x="-900" y="350" />
            </Array>
          </mxGeometry>
        </mxCell>
        <mxCell id="2W7-Mf5VqZzJveLvrDeV-52" value="" style="endArrow=classic;html=1;rounded=0;exitX=0.506;exitY=1.042;exitDx=0;exitDy=0;exitPerimeter=0;entryX=0.5;entryY=0;entryDx=0;entryDy=0;" parent="1" source="2W7-Mf5VqZzJveLvrDeV-24" target="2W7-Mf5VqZzJveLvrDeV-37" edge="1">
          <mxGeometry width="50" height="50" relative="1" as="geometry">
            <mxPoint x="-590" y="450" as="sourcePoint" />
            <mxPoint x="-540" y="400" as="targetPoint" />
          </mxGeometry>
        </mxCell>
        <mxCell id="2W7-Mf5VqZzJveLvrDeV-53" value="" style="endArrow=classic;html=1;rounded=0;exitX=0.25;exitY=0;exitDx=0;exitDy=0;entryX=1;entryY=0.058;entryDx=0;entryDy=0;entryPerimeter=0;" parent="1" source="2W7-Mf5VqZzJveLvrDeV-37" target="2W7-Mf5VqZzJveLvrDeV-16" edge="1">
          <mxGeometry width="50" height="50" relative="1" as="geometry">
            <mxPoint x="-590" y="450" as="sourcePoint" />
            <mxPoint x="-540" y="400" as="targetPoint" />
            <Array as="points">
              <mxPoint x="-580" y="390" />
            </Array>
          </mxGeometry>
        </mxCell>
        <mxCell id="2W7-Mf5VqZzJveLvrDeV-54" value="" style="endArrow=classic;html=1;rounded=0;exitX=0.494;exitY=1.019;exitDx=0;exitDy=0;exitPerimeter=0;entryX=0.5;entryY=0;entryDx=0;entryDy=0;" parent="1" source="2W7-Mf5VqZzJveLvrDeV-16" target="2W7-Mf5VqZzJveLvrDeV-41" edge="1">
          <mxGeometry width="50" height="50" relative="1" as="geometry">
            <mxPoint x="-730" y="510" as="sourcePoint" />
            <mxPoint x="-680" y="460" as="targetPoint" />
          </mxGeometry>
        </mxCell>
        <mxCell id="2W7-Mf5VqZzJveLvrDeV-55" value="" style="endArrow=classic;html=1;rounded=0;entryX=1.019;entryY=0.595;entryDx=0;entryDy=0;entryPerimeter=0;exitX=-0.019;exitY=1;exitDx=0;exitDy=0;exitPerimeter=0;" parent="1" source="2W7-Mf5VqZzJveLvrDeV-42" target="2W7-Mf5VqZzJveLvrDeV-34" edge="1">
          <mxGeometry width="50" height="50" relative="1" as="geometry">
            <mxPoint x="-880" y="570" as="sourcePoint" />
            <mxPoint x="-830" y="520" as="targetPoint" />
            <Array as="points">
              <mxPoint x="-900" y="710" />
              <mxPoint x="-900" y="540" />
            </Array>
          </mxGeometry>
        </mxCell>
        <mxCell id="2W7-Mf5VqZzJveLvrDeV-56" value="" style="endArrow=classic;html=1;rounded=0;exitX=-0.019;exitY=1.029;exitDx=0;exitDy=0;exitPerimeter=0;" parent="1" source="2W7-Mf5VqZzJveLvrDeV-38" edge="1">
          <mxGeometry width="50" height="50" relative="1" as="geometry">
            <mxPoint x="-680" y="615.01" as="sourcePoint" />
            <mxPoint x="-1017" y="610" as="targetPoint" />
            <Array as="points">
              <mxPoint x="-660" y="651" />
              <mxPoint x="-660" y="790" />
              <mxPoint x="-1017" y="790" />
            </Array>
          </mxGeometry>
        </mxCell>
        <mxCell id="2W7-Mf5VqZzJveLvrDeV-58" value="" style="endArrow=classic;startArrow=classic;html=1;rounded=0;entryX=0;entryY=0.028;entryDx=0;entryDy=0;entryPerimeter=0;" parent="1" target="2W7-Mf5VqZzJveLvrDeV-24" edge="1">
          <mxGeometry width="50" height="50" relative="1" as="geometry">
            <mxPoint x="-700" y="340" as="sourcePoint" />
            <mxPoint x="-650" y="290" as="targetPoint" />
            <Array as="points">
              <mxPoint x="-660" y="340" />
              <mxPoint x="-660" y="260" />
            </Array>
          </mxGeometry>
        </mxCell>
        <mxCell id="2W7-Mf5VqZzJveLvrDeV-59" value="" style="endArrow=classic;startArrow=classic;html=1;rounded=0;entryX=0;entryY=0.5;entryDx=0;entryDy=0;" parent="1" target="2W7-Mf5VqZzJveLvrDeV-26" edge="1">
          <mxGeometry width="50" height="50" relative="1" as="geometry">
            <mxPoint x="-460" y="220" as="sourcePoint" />
            <mxPoint x="-380" y="140" as="targetPoint" />
            <Array as="points">
              <mxPoint x="-420" y="220" />
              <mxPoint x="-420" y="70" />
            </Array>
          </mxGeometry>
        </mxCell>
        <mxCell id="2W7-Mf5VqZzJveLvrDeV-60" value="" style="endArrow=classic;startArrow=classic;html=1;rounded=0;entryX=-0.012;entryY=0.028;entryDx=0;entryDy=0;entryPerimeter=0;" parent="1" target="2W7-Mf5VqZzJveLvrDeV-20" edge="1">
          <mxGeometry width="50" height="50" relative="1" as="geometry">
            <mxPoint x="-460" y="310" as="sourcePoint" />
            <mxPoint x="-380" y="230" as="targetPoint" />
            <Array as="points">
              <mxPoint x="-420" y="310" />
              <mxPoint x="-420" y="520" />
            </Array>
          </mxGeometry>
        </mxCell>
        <mxCell id="2W7-Mf5VqZzJveLvrDeV-61" value="" style="endArrow=classic;startArrow=classic;html=1;rounded=0;entryX=-0.006;entryY=0.016;entryDx=0;entryDy=0;entryPerimeter=0;" parent="1" target="2W7-Mf5VqZzJveLvrDeV-32" edge="1">
          <mxGeometry width="50" height="50" relative="1" as="geometry">
            <mxPoint x="-460" y="270" as="sourcePoint" />
            <mxPoint x="-410" y="220" as="targetPoint" />
          </mxGeometry>
        </mxCell>
        <mxCell id="2W7-Mf5VqZzJveLvrDeV-62" value="" style="endArrow=classic;startArrow=classic;html=1;rounded=0;" parent="1" edge="1">
          <mxGeometry width="50" height="50" relative="1" as="geometry">
            <mxPoint x="-218" y="530" as="sourcePoint" />
            <mxPoint x="-160" y="740" as="targetPoint" />
            <Array as="points">
              <mxPoint x="-178" y="530" />
              <mxPoint x="-178" y="740" />
            </Array>
          </mxGeometry>
        </mxCell>
        <mxCell id="2W7-Mf5VqZzJveLvrDeV-63" value="" style="endArrow=classic;startArrow=classic;html=1;rounded=0;" parent="1" edge="1">
          <mxGeometry width="50" height="50" relative="1" as="geometry">
            <mxPoint x="-220" y="491" as="sourcePoint" />
            <mxPoint x="-160" y="340" as="targetPoint" />
            <Array as="points">
              <mxPoint x="-180" y="491" />
              <mxPoint x="-180" y="341" />
            </Array>
          </mxGeometry>
        </mxCell>
      </root>
    </mxGraphModel>
  </diagram>
</mxfile>
